<mxfile host="app.diagrams.net" agent="Mozilla/5.0 (Windows NT 10.0; Win64; x64) AppleWebKit/537.36 (KHTML, like Gecko) Chrome/128.0.0.0 Safari/537.36 Edg/128.0.0.0" version="24.7.10">
  <diagram name="Page-1" id="0U_5rgnvRqCMKmAp82OM">
    <mxGraphModel dx="1737" dy="945" grid="1" gridSize="10" guides="1" tooltips="1" connect="1" arrows="1" fold="1" page="1" pageScale="1" pageWidth="1000" pageHeight="850" math="0" shadow="0">
      <root>
        <mxCell id="0" />
        <mxCell id="1" parent="0" />
        <mxCell id="ean_hMVBPUoakqRCf4nn-3" value="Database" style="shape=cylinder3;whiteSpace=wrap;html=1;boundedLbl=1;backgroundOutline=1;size=15;" vertex="1" parent="1">
          <mxGeometry x="180" y="470" width="60" height="80" as="geometry" />
        </mxCell>
        <mxCell id="ean_hMVBPUoakqRCf4nn-4" value="Message Queue" style="rounded=1;whiteSpace=wrap;html=1;" vertex="1" parent="1">
          <mxGeometry x="290" y="480" width="120" height="60" as="geometry" />
        </mxCell>
        <mxCell id="ean_hMVBPUoakqRCf4nn-8" value="NEOBT Advanced Reporting" style="swimlane;" vertex="1" parent="1">
          <mxGeometry x="90" y="60" width="380" height="530" as="geometry" />
        </mxCell>
        <mxCell id="ean_hMVBPUoakqRCf4nn-13" style="edgeStyle=orthogonalEdgeStyle;rounded=0;orthogonalLoop=1;jettySize=auto;html=1;entryX=0.5;entryY=0;entryDx=0;entryDy=0;" edge="1" parent="ean_hMVBPUoakqRCf4nn-8" source="ean_hMVBPUoakqRCf4nn-1" target="ean_hMVBPUoakqRCf4nn-2">
          <mxGeometry relative="1" as="geometry" />
        </mxCell>
        <mxCell id="ean_hMVBPUoakqRCf4nn-1" value="User Web app" style="rounded=1;whiteSpace=wrap;html=1;" vertex="1" parent="ean_hMVBPUoakqRCf4nn-8">
          <mxGeometry x="135" y="90" width="120" height="60" as="geometry" />
        </mxCell>
        <mxCell id="ean_hMVBPUoakqRCf4nn-19" style="edgeStyle=orthogonalEdgeStyle;rounded=0;orthogonalLoop=1;jettySize=auto;html=1;exitX=0.25;exitY=1;exitDx=0;exitDy=0;" edge="1" parent="ean_hMVBPUoakqRCf4nn-8" source="ean_hMVBPUoakqRCf4nn-2">
          <mxGeometry relative="1" as="geometry">
            <mxPoint x="137.57142857142856" y="410" as="targetPoint" />
          </mxGeometry>
        </mxCell>
        <mxCell id="ean_hMVBPUoakqRCf4nn-22" style="edgeStyle=orthogonalEdgeStyle;rounded=0;orthogonalLoop=1;jettySize=auto;html=1;exitX=0.75;exitY=1;exitDx=0;exitDy=0;" edge="1" parent="ean_hMVBPUoakqRCf4nn-8" source="ean_hMVBPUoakqRCf4nn-2">
          <mxGeometry relative="1" as="geometry">
            <mxPoint x="252.72413793103442" y="420" as="targetPoint" />
          </mxGeometry>
        </mxCell>
        <mxCell id="ean_hMVBPUoakqRCf4nn-2" value="Backend API" style="rounded=0;whiteSpace=wrap;html=1;" vertex="1" parent="ean_hMVBPUoakqRCf4nn-8">
          <mxGeometry x="80" y="200" width="230" height="140" as="geometry" />
        </mxCell>
        <mxCell id="ean_hMVBPUoakqRCf4nn-12" style="edgeStyle=orthogonalEdgeStyle;rounded=0;orthogonalLoop=1;jettySize=auto;html=1;entryX=1;entryY=0.5;entryDx=0;entryDy=0;" edge="1" parent="1" source="ean_hMVBPUoakqRCf4nn-10" target="ean_hMVBPUoakqRCf4nn-1">
          <mxGeometry relative="1" as="geometry" />
        </mxCell>
        <mxCell id="ean_hMVBPUoakqRCf4nn-10" value="" style="verticalLabelPosition=bottom;html=1;verticalAlign=top;strokeWidth=1;align=center;outlineConnect=0;dashed=0;outlineConnect=0;shape=mxgraph.aws3d.end_user;strokeColor=none;fillColor=#777777;aspect=fixed;" vertex="1" parent="1">
          <mxGeometry x="560" y="130" width="49" height="100.46" as="geometry" />
        </mxCell>
        <mxCell id="ean_hMVBPUoakqRCf4nn-26" style="edgeStyle=orthogonalEdgeStyle;rounded=0;orthogonalLoop=1;jettySize=auto;html=1;entryX=1;entryY=0.5;entryDx=0;entryDy=0;" edge="1" parent="1" source="ean_hMVBPUoakqRCf4nn-11" target="ean_hMVBPUoakqRCf4nn-2">
          <mxGeometry relative="1" as="geometry" />
        </mxCell>
        <mxCell id="ean_hMVBPUoakqRCf4nn-11" value="Fineract API" style="rounded=1;whiteSpace=wrap;html=1;" vertex="1" parent="1">
          <mxGeometry x="730" y="70" width="160" height="520" as="geometry" />
        </mxCell>
        <mxCell id="ean_hMVBPUoakqRCf4nn-17" style="edgeStyle=orthogonalEdgeStyle;rounded=0;orthogonalLoop=1;jettySize=auto;html=1;exitX=0.145;exitY=0;exitDx=0;exitDy=4.35;exitPerimeter=0;entryX=0.082;entryY=1.014;entryDx=0;entryDy=0;entryPerimeter=0;" edge="1" parent="1" source="ean_hMVBPUoakqRCf4nn-3" target="ean_hMVBPUoakqRCf4nn-2">
          <mxGeometry relative="1" as="geometry" />
        </mxCell>
        <mxCell id="ean_hMVBPUoakqRCf4nn-24" style="edgeStyle=orthogonalEdgeStyle;rounded=0;orthogonalLoop=1;jettySize=auto;html=1;exitX=1;exitY=0.25;exitDx=0;exitDy=0;entryX=-0.003;entryY=0.434;entryDx=0;entryDy=0;entryPerimeter=0;" edge="1" parent="1" source="ean_hMVBPUoakqRCf4nn-2" target="ean_hMVBPUoakqRCf4nn-11">
          <mxGeometry relative="1" as="geometry" />
        </mxCell>
        <mxCell id="ean_hMVBPUoakqRCf4nn-27" value="SESAME Plateform" style="rounded=1;whiteSpace=wrap;html=1;" vertex="1" parent="1">
          <mxGeometry x="90" y="660" width="380" height="150" as="geometry" />
        </mxCell>
        <mxCell id="ean_hMVBPUoakqRCf4nn-28" style="edgeStyle=orthogonalEdgeStyle;rounded=0;orthogonalLoop=1;jettySize=auto;html=1;entryX=0.685;entryY=0.002;entryDx=0;entryDy=0;entryPerimeter=0;" edge="1" parent="1" source="ean_hMVBPUoakqRCf4nn-4" target="ean_hMVBPUoakqRCf4nn-27">
          <mxGeometry relative="1" as="geometry" />
        </mxCell>
      </root>
    </mxGraphModel>
  </diagram>
</mxfile>
